<svg width="40" height="40" viewBox="0 0 40 40" fill="none" xmlns="http://www.w3.org/2000/svg">
<path d="M32.3885 11.4181C32.2793 10.7948 31.8944 10.2541 31.341 9.94708C30.8291 9.63242 30.1995 9.57578 29.6397 9.79397C29.6397 9.74983 29.6528 9.70776 29.6528 9.66293C29.6626 8.53024 28.7524 7.60402 27.6197 7.59419C27.3677 7.59203 27.1174 7.63634 26.8813 7.72497C26.8813 7.68083 26.8944 7.63876 26.8944 7.59393C26.8944 6.45124 25.9682 5.52492 24.8257 5.52492C24.8257 4.38223 23.8994 3.45592 22.7569 3.45592C22.7121 3.45592 22.67 3.46626 22.6259 3.46902C22.8113 2.996 22.7993 2.46831 22.5928 2.00417C22.2961 1.29053 21.6365 0.793368 20.8688 0.704832C20.2334 0.650175 19.6086 0.893801 19.1779 1.36415C18.7906 0.291548 17.6072 -0.26398 16.5347 0.123269C15.7127 0.420171 15.1666 1.20251 15.1713 2.07658C15.1732 0.935784 14.2501 0.00947346 13.1095 0.00749066C12.3984 0.00628374 11.7366 0.371118 11.3579 0.973113C10.9071 0.709228 10.3714 0.631296 9.8642 0.755867C9.07272 0.951302 8.46639 1.58812 8.30985 2.38831C8.1928 3.0266 8.38468 3.68265 8.82705 4.15731C8.1715 4.20024 7.57578 4.55361 7.22374 5.10836C6.71353 4.80939 6.09763 4.75017 5.53975 4.94629C4.94489 5.15164 4.47502 5.61553 4.26193 6.2077C4.08867 6.68314 4.0985 7.20608 4.28952 7.67462C3.3883 7.91531 2.76068 8.73076 2.75861 9.66362C2.75861 9.70845 2.76896 9.75052 2.77172 9.79466C2.21349 9.57716 1.5857 9.63302 1.07462 9.9457C0.519585 10.2525 0.133239 10.7942 0.0236799 11.4188C-0.102344 12.2442 0.282192 13.064 0.997388 13.4947L1.37942 13.8023H3.79301V16.5024H27.9288V13.8009H31.032L30.9355 13.7044C31.923 13.4125 32.5434 12.4363 32.3885 11.4181Z" transform="translate(3.79297 0.0546875)" fill="#FDB62F"/>
<path d="M6.07081 27.5867L0.0830574 3.93525C-0.316046 2.20651 0.761619 0.481561 2.49018 0.0823295C2.72731 0.0275871 2.96979 -8.60078e-05 3.21313 2.00798e-07H3.24347C4.85988 -0.000258425 6.22468 1.20071 6.43009 2.80419L10.2084 27.5867H6.07081Z" transform="translate(3.58301 12.4141)" fill="#DE0418"/>
<path d="M3.69996 27.5867L0.026487 3.62145C-0.199355 1.86168 1.04398 0.251989 2.80357 0.0261226C2.93942 0.00870847 3.07622 -8.55808e-05 3.21311 6.27707e-07H3.32758C5.06975 -0.000171789 6.49454 1.38856 6.53902 3.13041L7.83753 27.5867H3.69996Z" transform="translate(10.0918 12.4141)" fill="#FCE9CC"/>
<path d="M0.00104477 3.29524L1.29542 27.5867H5.43299L6.63909 3.37938C6.73124 1.60753 5.3698 0.0965548 3.59815 0.00431168C3.54315 0.0014668 3.48816 9.92033e-07 3.43316 9.92033e-07H3.21456C1.44058 -0.00137834 0.00130393 1.43581 1.09411e-05 3.21006C-7.52583e-05 3.23843 0.00035517 3.26688 0.00104477 3.29524Z" transform="translate(16.6348 12.4141)" fill="#DE0418"/>
<path d="M1.22265 3.04833L0 27.5867H4.13757L7.70554 3.70145C7.9756 1.94788 6.77312 0.307506 5.01974 0.037415C4.85785 0.0125007 4.69442 0 4.53064 0H4.43065C2.72037 0 1.31006 1.34011 1.22265 3.04833Z" transform="translate(22.0684 12.4141)" fill="#FCE9CC"/>
<path d="M6.89595 1.23171e-06C8.66994 1.23171e-06 10.1081 1.43831 10.1081 3.21248C10.1081 3.48162 10.0743 3.74973 10.0074 4.01042L4.13757 27.5867H0L3.7183 2.72419C3.95948 1.15589 5.30937 -0.00137811 6.89595 1.23171e-06Z" transform="translate(26.2061 12.4141)" fill="#DE0418"/>
<path d="M0 0H17.9295V8.27602H0V0Z" transform="translate(11.0332 22.7617)" fill="#FDB62F"/>
<path d="M6.20636 2.07014C6.21084 0.931327 5.29126 0.0044128 4.15257 1.61685e-05C3.38884 -0.00300113 2.68606 0.41649 2.326 1.09012C2.24093 1.07616 2.15498 1.06771 2.06879 1.06461C0.926212 1.06461 0 1.99092 0 3.13361C0 4.27631 0.926212 5.20262 2.06879 5.20262C2.16498 5.19968 2.26084 5.19003 2.35566 5.17365C2.91604 6.16419 4.17326 6.51281 5.16369 5.95237C6.15412 5.39193 6.50271 4.13458 5.94233 3.14404C5.93483 3.13085 5.92724 3.11775 5.91948 3.10473C6.10533 2.79145 6.20437 2.43437 6.20636 2.07014Z" fill="#FDB62F"/>
<path d="M6.20636 2.07014C6.21084 0.931241 5.29126 0.0044128 4.15257 1.61685e-05C3.38884 -0.00300113 2.68606 0.41649 2.32601 1.09012C2.24093 1.07616 2.15498 1.06771 2.06879 1.06461C0.926212 1.06461 0 1.99092 0 3.13361C0 4.27631 0.926212 5.20262 2.06879 5.20262C2.16498 5.19968 2.26084 5.19003 2.35566 5.17365C2.91604 6.16419 4.17326 6.51281 5.16369 5.95237C6.15412 5.39193 6.50271 4.13458 5.94233 3.14404C5.93483 3.13085 5.92724 3.11775 5.91948 3.10464C6.10533 2.79145 6.20437 2.43437 6.20636 2.07014Z" transform="translate(33.79 1.37891)" fill="#FDB62F"/>
</svg>
